HIERARCHY
ROOT Hips
{
 OFFSET 0.000000 0.000000 0.000000
 CHANNELS 6 Xposition Yposition Zposition Yrotation Xrotation Zrotation
 JOINT Chest
 {
  OFFSET 0.000000 9.585900 0.002600
  CHANNELS 3 Yrotation Xrotation Zrotation
  JOINT Chest2
  {
   OFFSET 0.000000 9.601200 -0.005300
   CHANNELS 3 Yrotation Xrotation Zrotation
   JOINT Chest3
   {
    OFFSET 0.000000 9.561800 0.000000
    CHANNELS 3 Yrotation Xrotation Zrotation
    JOINT Chest4
    {
     OFFSET 0.000000 9.552100 0.000000
     CHANNELS 3 Yrotation Xrotation Zrotation
     JOINT Neck
     {
      OFFSET 0.000000 14.453000 0.000000
      CHANNELS 3 Yrotation Xrotation Zrotation
      JOINT Head
      {
       OFFSET 0.000000 8.936500 -0.011300
       CHANNELS 3 Yrotation Xrotation Zrotation
       End Site
       {
        OFFSET 0.000000 17.073600 -0.006000
       }
      }
     }
     JOINT RightCollar
     {
      OFFSET -2.921100 9.558500 0.000000
      CHANNELS 3 Yrotation Xrotation Zrotation
      JOINT RightShoulder
      {
       OFFSET -13.519700 0.000000 0.000000
       CHANNELS 3 Yrotation Xrotation Zrotation
       JOINT RightElbow
       {
        OFFSET 0.000000 -29.696600 0.000000
        CHANNELS 3 Yrotation Xrotation Zrotation
        JOINT RightWrist
        {
         OFFSET 0.000000 -24.004700 0.000000
         CHANNELS 3 Yrotation Xrotation Zrotation
         End Site
         {
          OFFSET 0.000000 -17.728500 0.000000
         }
        }
       }
      }
     }
     JOINT LeftCollar
     {
      OFFSET 2.921100 9.558500 0.000000
      CHANNELS 3 Yrotation Xrotation Zrotation
      JOINT LeftShoulder
      {
       OFFSET 13.519700 0.000000 0.000000
       CHANNELS 3 Yrotation Xrotation Zrotation
       JOINT LeftElbow
       {
        OFFSET 0.000000 -29.696600 0.000000
        CHANNELS 3 Yrotation Xrotation Zrotation
        JOINT LeftWrist
        {
         OFFSET 0.000000 -24.004700 0.000000
         CHANNELS 3 Yrotation Xrotation Zrotation
         End Site
         {
          OFFSET 0.000000 -17.728500 0.000000
         }
        }
       }
      }
     }
    }
   }
  }
 }
 JOINT RightHip
 {
  OFFSET -7.771700 -0.012900 -0.001300
  CHANNELS 3 Yrotation Xrotation Zrotation
  JOINT RightKnee
  {
   OFFSET 0.000000 -40.869800 0.001200
   CHANNELS 3 Yrotation Xrotation Zrotation
   JOINT RightAnkle
   {
    OFFSET 0.000000 -39.717900 0.002100
    CHANNELS 3 Yrotation Xrotation Zrotation
    JOINT RightToe
    {
     OFFSET 0.000000 -4.965400 11.033500
     CHANNELS 3 Yrotation Xrotation Zrotation
     End Site
     {
      OFFSET 0.000000 -1.423100 5.872300
     }
    }
   }
  }
 }
 JOINT LeftHip
 {
  OFFSET 7.771700 -0.012900 -0.001300
  CHANNELS 3 Yrotation Xrotation Zrotation
  JOINT LeftKnee
  {
   OFFSET 0.000000 -40.869800 0.001200
   CHANNELS 3 Yrotation Xrotation Zrotation
   JOINT LeftAnkle
   {
    OFFSET 0.000000 -39.717900 0.002100
    CHANNELS 3 Yrotation Xrotation Zrotation
    JOINT LeftToe
    {
     OFFSET 0.000000 -4.965400 11.033500
     CHANNELS 3 Yrotation Xrotation Zrotation
     End Site
     {
      OFFSET 0.000000 -1.423100 5.872300
     }
    }
   }
  }
 }
}
MOTION
Frames: 14
Frame Time: 0.008333
0.000000 85.388000 0.000000 0.000000 -5.767877 0.000000 0.000000 11.653817 0.000000 0.000000 -5.885947 0.000000 0.000000 -0.000000 0.000000 0.000000 -0.000000 0.000000 0.000000 12.528835 0.000000 0.000000 0.711642 0.000000 0.000000 -0.000000 0.000000 0.000000 0.000000 -90.000000 0.000000 -2.309062 0.000000 0.000000 2.309062 0.000000 0.000000 -0.000000 0.000000 0.000000 -0.000000 90.000000 0.000000 -2.309062 0.000000 0.000000 2.309062 0.000000 0.000000 8.520406 0.000000 0.000000 1.905762 0.000000 -0.000000 -4.658285 0.000000 0.000000 -0.000000 0.000000 0.000000 8.520406 0.000000 0.000000 1.905762 0.000000 -0.000000 -4.658285 0.000000 0.000000 -0.000000 0.000000
-16.109309 55.337610 14.685247 -178.195642 -16.167917 -1.997782 0.397785 15.184497 0.016160 0.086581 1.384345 0.057413 0.015100 2.377842 -0.000988 0.478191 13.517763 0.312571 3.432940 18.594984 2.368602 3.109503 -6.049626 1.734565 0.736937 0.605829 2.689597 2.262463 -4.644758 -8.445573 -87.168372 -67.400280 117.586323 -12.445031 -14.462104 -5.889137 -7.585297 -2.126270 0.697752 5.202734 -15.613908 10.680041 81.411512 -58.235404 -121.772802 8.086974 -12.828363 -3.457378 -0.507615 -58.696855 11.710788 -95.983972 87.633496 -100.263988 -11.371178 -22.871798 14.586709 0.061589 -0.106436 0.041326 10.236553 -55.315862 -6.148662 110.732922 77.057309 108.051686 -7.601062 -23.665908 1.800607 0.050277 0.285080 0.018253
-16.108791 55.337328 14.687022 -178.184656 -16.175823 -2.001690 0.434294 15.175661 0.061989 0.092834 1.384795 0.064133 0.055160 2.361161 0.034228 0.410052 13.539897 0.278156 3.574413 18.861550 2.310215 3.223979 -5.738383 1.626223 0.721383 0.627503 2.688380 2.258339 -4.666916 -8.431005 -87.005759 -67.400401 117.360641 -12.457434 -14.443302 -5.896207 -7.578846 -1.992641 0.772150 4.965344 -16.077536 10.576447 77.142668 -59.106476 -116.877795 8.142944 -11.651673 -3.878205 -0.521537 -58.688754 11.708755 -96.004342 87.640971 -100.292637 -11.283532 -22.876387 14.568851 0.068154 -0.113079 0.035252 10.250150 -55.304909 -6.155952 110.714345 77.065695 108.040287 -7.608338 -23.671318 1.804956 0.053250 0.292274 0.023214
-16.109910 55.336460 14.690616 -178.168332 -16.177420 -1.998454 0.466983 15.161391 0.104577 0.097824 1.387538 0.066755 0.058964 2.360047 0.039316 0.458506 13.530783 0.329307 3.609780 19.125295 2.207458 3.313921 -5.449382 1.519697 0.631845 0.661225 2.649533 2.264767 -4.683714 -8.380775 -86.966045 -67.467102 117.277230 -12.508317 -14.430790 -5.932438 -7.658413 -1.805477 0.823070 4.779940 -16.618717 10.418469 72.749090 -59.743887 -111.935276 8.012163 -10.958425 -4.241153 -0.528909 -58.687232 11.685711 -96.053033 87.650078 -100.356902 -11.156933 -22.886923 14.547553 0.069182 -0.119396 0.029350 10.264346 -55.298592 -6.175897 110.681830 77.073895 107.999771 -7.597968 -23.677020 1.816259 0.037020 0.303885 0.023826
-16.111410 55.336073 14.692669 -178.153036 -16.193509 -1.994959 0.554265 15.155224 0.195891 0.046031 1.399281 0.032442 0.077881 2.355237 0.055315 0.486672 13.526727 0.367641 3.625644 19.353729 2.104277 3.385109 -5.198526 1.415129 0.600660 0.701673 2.692081 2.219029 -4.701929 -8.401218 -86.879278 -67.433122 117.108319 -12.466051 -14.410077 -5.903664 -7.744642 -1.564139 0.883962 4.686550 -17.233015 10.208212 68.563920 -60.166471 -107.283790 7.675132 -10.730513 -4.542005 -0.533898 -58.669865 11.665467 -96.007137 87.638807 -100.316586 -11.086277 -22.895767 14.538019 0.070722 -0.118503 0.025524 10.275013 -55.280579 -6.196105 110.671387 77.077442 107.995852 -7.601833 -23.677612 1.818696 0.041114 0.303166 0.025382
-16.113615 55.335549 14.695443 -178.136742 -16.209590 -1.989608 0.558766 15.167000 0.208301 0.060198 1.393451 0.048850 0.079694 2.355255 0.059514 0.499418 13.526188 0.393079 3.658984 19.531018 2.013411 3.443752 -4.998638 1.311849 0.572347 0.718695 2.722840 2.197842 -4.699137 -8.399220 -86.886117 -67.435329 117.081533 -12.436393 -14.386566 -5.892408 -7.795343 -1.272972 0.947990 4.700489 -17.895742 9.985026 64.848962 -60.480680 -103.219558 7.216322 -10.804079 -4.803720 -0.532132 -58.655284 11.647577 -96.005182 87.633017 -100.311192 -11.113106 -22.893826 14.547862 0.112363 -0.104680 0.028685 10.290263 -55.261202 -6.221180 110.658083 77.082805 107.990320 -7.609141 -23.681712 1.820738 0.042792 0.305930 0.028020
-16.115286 55.335134 14.698643 -178.116765 -16.226582 -1.990521 0.557937 15.178983 0.224391 0.056996 1.386928 0.056552 0.077794 2.362165 0.052882 0.502574 13.523096 0.415816 3.687185 19.656006 1.926819 3.495345 -4.857415 1.213863 0.547195 0.720232 2.744384 2.198076 -4.683721 -8.369931 -86.891312 -67.499638 117.087656 -12.501806 -14.471238 -5.899229 -7.830077 -0.948462 0.986592 4.797816 -18.543036 9.824052 61.745284 -60.831348 -99.910353 6.787215 -10.954106 -5.002410 -0.540959 -58.639295 11.634812 -96.032300 87.633837 -100.338284 -11.123798 -22.890791 14.554259 0.064197 -0.105980 0.024472 10.328932 -55.242534 -6.258385 110.643901 77.091784 107.995647 -7.610094 -23.680414 1.817153 0.041370 0.304846 0.039711
-16.119321 55.335039 14.701571 -178.107155 -16.248697 -1.976327 0.544422 15.173830 0.234405 0.044988 1.401338 0.036120 0.097446 2.370511 0.059743 0.459534 13.523044 0.404695 3.718042 19.724785 1.852158 3.546432 -4.779130 1.127638 0.562391 0.716775 2.769624 2.197509 -4.672496 -8.321229 -86.947806 -67.502544 117.134944 -12.511164 -14.529524 -5.899299 -7.862086 -0.635259 0.988759 4.925500 -19.072772 9.806885 59.327080 -61.293805 -97.390027 6.522595 -11.023480 -5.114098 -0.532031 -58.619028 11.620825 -95.960290 87.618947 -100.250738 -11.279013 -22.879198 14.583266 0.037186 -0.090456 0.023932 10.360275 -55.218280 -6.292550 110.640665 77.097883 107.997189 -7.614828 -23.673780 1.816301 0.049868 0.294310 0.040906
-16.123497 55.335119 14.705343 -178.096682 -16.266756 -1.962923 0.517694 15.184781 0.213370 0.011359 1.397011 0.024880 0.133961 2.369553 0.078537 0.372167 13.537285 0.359786 3.756524 19.735675 1.793237 3.601422 -4.765777 1.056138 0.592386 0.706063 2.801935 2.249547 -4.660727 -8.297944 -87.150175 -67.430509 117.302099 -12.477420 -14.501626 -5.897871 -7.909738 -0.395923 0.940170 5.010720 -19.378816 9.994493 57.648833 -61.808795 -95.623422 6.467224 -11.036768 -5.200548 -0.518682 -58.603343 11.597406 -95.839080 87.603476 -100.116402 -11.373850 -22.870862 14.597785 0.030694 -0.080059 0.025453 10.376804 -55.197369 -6.317390 110.609818 77.089496 107.956439 -7.618530 -23.667059 1.821030 0.040619 0.290157 0.040180
-16.125560 55.336383 14.707124 -178.099378 -16.296483 -1.960136 0.433130 15.199963 0.159288 0.016699 1.403503 0.024266 0.083008 2.367495 0.060054 0.354169 13.557137 0.329341 3.802885 19.691340 1.752222 3.660123 -4.814468 1.001689 0.627071 0.696510 2.835849 2.313950 -4.678996 -8.211103 -87.201599 -67.467067 117.367041 -12.470198 -14.513999 -5.887389 -7.981754 -0.270481 0.841471 4.995633 -19.404030 10.398835 56.778676 -62.260735 -94.620777 6.510905 -11.122696 -5.292907 -0.525268 -58.572032 11.591806 -95.796189 87.616534 -100.083183 -11.326169 -22.876432 14.587754 0.035219 -0.082028 0.021580 10.405015 -55.167695 -6.321927 110.600947 77.096146 107.947571 -7.625323 -23.654052 1.833933 0.036590 0.280291 0.040170
-16.126610 55.338226 14.709389 -178.113139 -16.320060 -1.961176 0.327953 15.217533 0.086225 0.027960 1.409896 0.025556 0.047515 2.372344 0.043320 0.301029 13.574820 0.279405 3.853479 19.597940 1.732680 3.717953 -4.918083 0.968949 0.680915 0.694287 2.865839 2.378770 -4.733881 -8.126278 -87.225461 -67.513102 117.425308 -12.476027 -14.519251 -5.875640 -8.070703 -0.254991 0.725512 4.880166 -19.166750 10.959422 56.767715 -62.603384 -94.438791 6.555732 -11.277121 -5.328885 -0.532804 -58.548884 11.601801 -95.707797 87.626037 -100.002821 -11.270816 -22.875476 14.573858 0.040318 -0.088719 0.019359 10.437665 -55.145066 -6.316455 110.610224 77.100323 107.959368 -7.638022 -23.646828 1.846012 0.034046 0.271394 0.041158
-16.127116 55.340466 14.713314 -178.127781 -16.327262 -1.965458 0.226220 15.238074 0.012153 0.020048 1.414815 0.019386 0.034063 2.380376 0.032812 0.216516 13.597005 0.210254 3.901903 19.463909 1.734573 3.768075 -5.067223 0.959328 0.730349 0.680930 2.904540 2.457936 -4.803021 -8.075125 -87.298489 -67.533520 117.537911 -12.486919 -14.499317 -5.858952 -8.154142 -0.320416 0.632946 4.713935 -18.737969 11.564764 57.481299 -62.813907 -94.978634 6.599628 -11.430586 -5.313232 -0.546741 -58.540282 11.620990 -95.489272 87.631728 -99.790560 -11.218610 -22.879937 14.567889 0.043380 -0.087150 0.009954 10.500483 -55.137126 -6.316441 110.638552 77.116949 107.994415 -7.669396 -23.641288 1.868227 0.042813 0.262105 0.038183
-16.126267 55.344139 14.715991 -178.146720 -16.333777 -1.976925 0.122803 15.278599 -0.065297 0.011901 1.421890 0.012665 0.020192 2.391980 0.021424 0.129436 13.627637 0.135999 3.942177 19.301023 1.752629 3.805267 -5.248778 0.968660 0.774638 0.644257 2.957616 2.524398 -4.883879 -8.049972 -87.306730 -67.544468 117.628596 -12.489432 -14.492317 -5.841501 -8.207628 -0.434878 0.588458 4.546800 -18.200707 12.113409 58.645260 -62.864129 -96.014562 6.648250 -11.578940 -5.302532 -0.565397 -58.529687 11.641106 -95.268452 87.648865 -99.581858 -11.082933 -22.893223 14.546266 0.049988 -0.091637 0.000095 10.517685 -55.131255 -6.288031 110.648743 77.127085 108.012145 -7.684094 -23.639458 1.853293 0.050591 0.258146 0.054537
-16.122882 55.348980 14.718816 -178.187453 -16.329415 -1.996852 0.046254 15.328244 -0.133206 0.003768 1.431395 0.006011 0.006360 2.407394 0.010150 0.042815 13.667502 0.062531 3.966431 19.124202 1.779025 3.823090 -5.446080 0.990412 0.811677 0.581771 3.023114 2.566196 -4.971947 -8.049495 -87.289275 -67.544679 117.723086 -12.487885 -14.483705 -5.816897 -8.221537 -0.577747 0.601112 4.393833 -17.624818 12.556165 60.056641 -62.774889 -97.371087 6.713002 -11.708328 -5.277326 -0.589052 -58.530115 11.691672 -94.954883 87.667746 -99.280200 -10.947604 -22.898675 14.520388 0.057231 -0.099395 -0.007735 10.527363 -55.140800 -6.232851 110.664870 77.137837 108.034870 -7.690401 -23.633866 1.841991 0.057978 0.250901 0.060512
